<?xml version="1.0" encoding="utf-8"?>
<!-- Generator: Adobe Illustrator 16.0.4, SVG Export Plug-In . SVG Version: 6.00 Build 0)  -->
<!DOCTYPE svg PUBLIC "-//W3C//DTD SVG 1.1//EN" "http://www.w3.org/Graphics/SVG/1.1/DTD/svg11.dtd">
<svg version="1.1"
	 id="svg2995" xmlns:dc="http://purl.org/dc/elements/1.1/" xmlns:cc="http://creativecommons.org/ns#" xmlns:rdf="http://www.w3.org/1999/02/22-rdf-syntax-ns#" xmlns:svg="http://www.w3.org/2000/svg" xmlns:sodipodi="http://sodipodi.sourceforge.net/DTD/sodipodi-0.dtd" xmlns:inkscape="http://www.inkscape.org/namespaces/inkscape" sodipodi:docname="aol.svg" inkscape:version="0.48.3.1 r9886"
	 xmlns="http://www.w3.org/2000/svg" xmlns:xlink="http://www.w3.org/1999/xlink" x="0px" y="0px" width="56.689px"
	 height="56.689px" viewBox="0 0 56.689 56.689" enable-background="new 0 0 56.689 56.689" xml:space="preserve">
<sodipodi:namedview  inkscape:cy="-21.041999" inkscape:cx="73.520681" inkscape:zoom="3.6203867" showguides="true" showgrid="false" guidetolerance="10" gridtolerance="10" objecttolerance="10" borderopacity="1" pagecolor="#ffffff" bordercolor="#666666" id="namedview2997" inkscape:current-layer="svg2995" inkscape:window-maximized="0" inkscape:window-y="95" inkscape:window-x="924" inkscape:guide-bbox="true" inkscape:window-height="752" inkscape:window-width="882" inkscape:pageshadow="2" inkscape:pageopacity="0">
	</sodipodi:namedview>
<path id="rect3094" sodipodi:nodetypes="cccccsssss" inkscape:connector-curvature="0" fill="#FFFFFF" d="M0,0v56.688h56.688V0H0z
	 M28.344,5.719c13.599,0,22.625,9.024,22.625,22.625c0,13.602-9.025,22.625-22.625,22.625c-13.601,0-22.625-9.023-22.625-22.625
	C5.719,14.743,14.743,5.719,28.344,5.719z"/>
<path id="path2987" fill="#252525" d="M28.344,3.719c-13.601,0-24.625,11.024-24.625,24.625c0,13.602,11.024,24.625,24.625,24.625
	c13.6,0,24.625-11.023,24.625-24.625C52.969,14.743,41.943,3.719,28.344,3.719z M15.656,21h2.969l5.688,14.312h-4.031l-0.688-2.031
	h-5l-0.656,2.031H9.875L15.656,21z M37.75,21h3.188v14.312H37.75V21z M30.219,24.156c3.315,0,5.812,2.591,5.812,5.781
	c0,3.363-2.604,5.75-5.812,5.75c-3.21,0-5.844-2.387-5.844-5.75C24.375,26.747,26.904,24.156,30.219,24.156z M17.156,25.5
	l-1.5,4.812h2.969L17.156,25.5z M30.219,27.219c-1.432,0-2.625,1.21-2.625,2.719c0,1.499,1.193,2.719,2.625,2.719
	s2.594-1.22,2.594-2.719C32.813,28.429,31.651,27.209,30.219,27.219z M44.781,31.656c1.114,0,2.031,0.916,2.031,2.031
	c0,1.114-0.917,2-2.031,2c-1.115,0-2.031-0.886-2.031-2C42.75,32.573,43.666,31.656,44.781,31.656z"/>
</svg>
