<?xml version="1.0" encoding="utf-8"?>
<!-- Generator: Adobe Illustrator 16.0.4, SVG Export Plug-In . SVG Version: 6.00 Build 0)  -->
<!DOCTYPE svg PUBLIC "-//W3C//DTD SVG 1.1//EN" "http://www.w3.org/Graphics/SVG/1.1/DTD/svg11.dtd">
<svg version="1.1" id="Layer_1" xmlns="http://www.w3.org/2000/svg" xmlns:xlink="http://www.w3.org/1999/xlink" x="0px" y="0px"
	 width="64px" height="64px" viewBox="0 0 64 64" enable-background="new 0 0 64 64" xml:space="preserve">
<g>
	<path fill="none" stroke="#000000" stroke-width="1.0994" stroke-miterlimit="10" d="M0.805,59.118"/>
	<path fill="none" stroke="#000000" stroke-width="1.0994" stroke-miterlimit="10" d="M35.984,59.118"/>
	<g>
		<path fill="#B3B3B3" d="M8.848,29.87c0.339,1.731,1.958,3.046,3.91,3.046h46.455c1.953,0,3.57-1.314,3.91-3.046H8.848z"/>
		<path fill="#B3B3B3" d="M63.195,29.136V6.215c0-2.053-1.783-3.716-3.982-3.716H12.758c-2.198,0-3.982,1.663-3.982,3.716v22.921
			H63.195z"/>
	</g>
	<path fill="#666666" d="M15.097,25.494"/>
	<g>
		<circle fill="#666666" cx="21.326" cy="17.569" r="4.489"/>
		<path fill="#666666" d="M34.795,15.028c-1.466-0.458-2.474,1.741-2.474,1.741l-1.924,3.298C29.023,23.549,26,23.182,26,23.182
			l-8.154-0.183c0,0-3.207-0.366-4.673,3.848c0,0-2.014,4.123-1.832,5.68c0.064,0.545,2.291,7.602,2.84,8.244
			c0.55,0.643,1.649,0.275,1.649,0.275s-1.649,15.757-2.107,18.14c-0.34,1.768,1.1,2.29,1.1,2.29
			c1.74,0.274,2.016-1.833,2.016-1.833l3.848-13.375l3.939,13.468c0,0,0.091,1.831,1.833,1.74c1.709-0.09,1.191-2.383,1.191-2.383
			L25.45,39.854l1.1-0.642l-0.275-11.359c4.214-1.649,5.222-3.298,5.68-3.939c0.458-0.641,2.931-6.321,2.931-6.321
			S36.26,15.486,34.795,15.028z M15.371,36.099l-0.824-2.564c0,0-0.916-1.65,0.916-4.123L15.371,36.099z"/>
	</g>
</g>
</svg>
