<?xml version="1.0" encoding="utf-8"?>
<!-- Generator: Adobe Illustrator 16.0.4, SVG Export Plug-In . SVG Version: 6.00 Build 0)  -->
<!DOCTYPE svg PUBLIC "-//W3C//DTD SVG 1.1//EN" "http://www.w3.org/Graphics/SVG/1.1/DTD/svg11.dtd">
<svg version="1.1" id="Layer_1" xmlns="http://www.w3.org/2000/svg" xmlns:xlink="http://www.w3.org/1999/xlink" x="0px" y="0px"
	 width="64px" height="64px" viewBox="0 0 64 64" enable-background="new 0 0 64 64" xml:space="preserve">
<g>
	<path fill="none" stroke="#808184" stroke-width="8.7019" d="M6.535,32.321C6.29,29,6.689,25.576,7.82,22.222
		C12.358,8.753,26.958,1.511,40.428,6.051c4.858,1.636,8.9,4.582,11.876,8.308"/>
	<path fill="none" stroke="#808184" stroke-width="8.7019" d="M7.093,36.076"/>
	<polygon fill="#808184" stroke="#808184" stroke-width="0.9172" points="60.736,4.613 60.736,23.125 42.225,23.125 	"/>
	<path fill="none" stroke="#808184" stroke-width="8.7019" d="M57.466,31.679c0.244,3.321-0.155,6.745-1.285,10.101
		c-4.539,13.47-19.139,20.71-32.609,16.17c-4.858-1.636-8.899-4.581-11.876-8.308"/>
	<path fill="none" stroke="#808184" stroke-width="8.7019" d="M56.907,27.924"/>
	<polygon fill="#808184" stroke="#808184" stroke-width="0.9172" points="3.264,59.387 3.264,40.875 21.775,40.875 	"/>
</g>
</svg>
