<?xml version="1.0" encoding="UTF-8" standalone="no"?>
<!-- Generator: Adobe Illustrator 16.0.4, SVG Export Plug-In . SVG Version: 6.00 Build 0)  -->

<svg
   xmlns:dc="http://purl.org/dc/elements/1.1/"
   xmlns:cc="http://creativecommons.org/ns#"
   xmlns:rdf="http://www.w3.org/1999/02/22-rdf-syntax-ns#"
   xmlns:svg="http://www.w3.org/2000/svg"
   xmlns="http://www.w3.org/2000/svg"
   xmlns:sodipodi="http://sodipodi.sourceforge.net/DTD/sodipodi-0.dtd"
   xmlns:inkscape="http://www.inkscape.org/namespaces/inkscape"
   version="1.1"
   id="svg2"
   sodipodi:docname="gazebo-horz-white.svg"
   inkscape:version="0.48.4 r9939"
   x="0px"
   y="0px"
   width="100"
   height="24.135391"
   viewBox="0 109.75 100 24.135391"
   enable-background="new 0 109.75 979.85 261"
   xml:space="preserve"><metadata
     id="metadata19"><rdf:RDF><cc:Work
         rdf:about=""><dc:format>image/svg+xml</dc:format><dc:type
           rdf:resource="http://purl.org/dc/dcmitype/StillImage" /></cc:Work></rdf:RDF></metadata><defs
     id="defs17" /><sodipodi:namedview
     pagecolor="#ffffff"
     bordercolor="#666666"
     borderopacity="1"
     objecttolerance="10"
     gridtolerance="10"
     guidetolerance="10"
     inkscape:pageopacity="0"
     inkscape:pageshadow="2"
     inkscape:window-width="1989"
     inkscape:window-height="973"
     id="namedview15"
     showgrid="false"
     fit-margin-top="0"
     fit-margin-left="0"
     fit-margin-right="0"
     fit-margin-bottom="0"
     inkscape:zoom="0.35515641"
     inkscape:cx="478.64156"
     inkscape:cy="114.52209"
     inkscape:window-x="0"
     inkscape:window-y="0"
     inkscape:window-maximized="0"
     inkscape:current-layer="svg2" /><g
     id="g3"
     transform="matrix(0.10446232,0,0,0.10446232,-1.1786933,96.825072)"><sodipodi:namedview
       id="namedview21"
       showgrid="false"
       borderopacity="1"
       bordercolor="#666666"
       pagecolor="#ffffff"
       objecttolerance="10"
       inkscape:zoom="0.7447059"
       inkscape:cx="675.12529"
       inkscape:cy="63.935242"
       gridtolerance="10"
       guidetolerance="10"
       inkscape:window-height="1033"
       inkscape:pageshadow="2"
       inkscape:window-maximized="0"
       inkscape:window-x="2402"
       inkscape:current-layer="svg2"
       inkscape:pageopacity="0"
       inkscape:window-width="1654"
       inkscape:window-y="214" /><g
       id="g3606"
       transform="translate(-170.94157,-79.7499)"><path
         id="path3024"
         inkscape:connector-curvature="0"
         d="m 279.685,203.478 c -1.195,0.001 -2.386,0.297 -3.44,0.951 l -90.942,56.493 c -1.919,1.188 -3.078,3.307 -3.078,5.567 v 105.02 c 0,2.262 1.159,4.374 3.078,5.568 l 90.942,56.447 c 0.044,0.029 0.091,0.065 0.136,0.092 0.049,0.026 0.083,0.06 0.135,0.09 0.103,0.054 0.21,0.083 0.317,0.136 0.106,0.054 0.205,0.133 0.317,0.181 0.17,0.068 0.37,0.129 0.543,0.182 0.104,0.036 0.212,0.065 0.317,0.09 0.195,0.061 0.391,0.1 0.589,0.137 0.083,0.017 0.142,0.039 0.226,0.045 0.286,0.044 0.575,0.045 0.86,0.045 0.593,0 1.191,-0.068 1.765,-0.227 0.006,-0.006 0.045,0 0.045,0 0.223,-0.059 0.418,-0.186 0.633,-0.271 0.066,-0.025 0.118,-0.019 0.181,-0.045 0.183,-0.079 0.37,-0.176 0.543,-0.271 0.096,-0.053 0.178,-0.128 0.271,-0.182 h 0.045 l 0.136,-0.09 90.806,-56.357 c 1.928,-1.2 3.082,-3.343 3.078,-5.612 l -0.135,-52.602 c -0.006,-2.365 -1.319,-4.558 -3.396,-5.704 -2.072,-1.15 -4.597,-1.07 -6.608,0.182 l -38.75,24.127 -29.831,-18.514 75.641,-47.077 c 1.92,-1.195 3.078,-3.305 3.078,-5.568 -0.005,-2.257 -1.158,-4.335 -3.078,-5.522 l -90.986,-56.357 c -1.054,-0.657 -2.244,-0.954 -3.438,-0.954 l 0,0 z m -84.65,74.601 65.909,40.921 -65.909,40.922 v -81.843 z m 91.077,48.571 29.832,18.514 -39.835,24.808 c -1.923,1.193 -3.087,3.297 -3.078,5.567 l 0.09,40.694 -71.974,-44.724 72.155,-44.813 2.943,1.81 c 1.054,0.654 2.241,0.996 3.44,0.996 1.196,0 2.428,-0.338 3.486,-0.996 l 2.941,-1.856 z m 77.905,3.984 0.09,37.256 -77.904,48.39 -0.136,-37.119 77.95,-48.527 0,0 z"
         style="fill:#ffffff" /><path
         id="path3028"
         inkscape:connector-curvature="0"
         d="m 201.13,266.48 78.568,48.787 78.568,-48.932 -78.561,-48.648 -78.575,48.793"
         style="fill:#ffffff" /><path
         id="path3030"
         inkscape:connector-curvature="0"
         d="m 542.46,323.304 c -2.44,31.604 -30.021,50.714 -56.172,50.714 -31.748,0 -57.036,-25.712 -57.036,-55.027 0,-27.579 22.846,-55.023 56.893,-55.023 28.158,0 46.115,19.397 50.285,30.171 h -12.355 c -6.034,-10.487 -20.117,-20.545 -37.787,-20.545 -26.863,0 -46.404,21.84 -46.404,45.547 0,23.701 19.541,45.255 46.838,45.255 22.553,0 39.22,-16.668 42.953,-31.47 h -59.332 v -9.621 h 72.117"
         style="fill:#ffffff" /><path
         id="path3032"
         inkscape:connector-curvature="0"
         d="m 603.063,326.752 h 41.232 l -20.401,-48.847 -20.831,48.847 0,0 z m 14.797,-60.914 h 11.925 l 45.681,106.312 h -11.638 l -15.362,-35.77 h -49.424 l -15.515,35.77 H 572.462 L 617.86,265.838"
         style="fill:#ffffff" /><path
         id="path3034"
         inkscape:connector-curvature="0"
         d="m 711.561,362.521 52.291,-87.062 h -50.711 v -9.622 h 62.631 v 9.622 l -52.149,87.062 h 53.732 v 9.628 h -65.794 v -9.628"
         style="fill:#ffffff" /><path
         id="path3036"
         inkscape:connector-curvature="0"
         d="m 817.314,265.838 h 58.188 v 9.622 H 827.95 v 38.221 h 45.972 v 9.623 H 827.95 v 39.218 h 47.552 v 9.628 H 817.314 V 265.838"
         style="fill:#ffffff" /><path
         id="path3038"
         inkscape:connector-curvature="0"
         d="m 931.553,362.521 h 14.938 c 8.911,0 14.37,-0.43 20.109,-2.728 6.608,-2.727 11.209,-10.052 11.209,-18.1 0,-8.189 -5.458,-15.229 -12.493,-17.961 -5.033,-2.012 -9.343,-2.441 -20.694,-2.441 h -13.069 v 41.23 z m 0,-50.856 h 13.353 c 8.343,0 13.079,-0.431 18.258,-3.014 5.023,-2.589 8.613,-8.614 8.613,-14.943 0,-4.883 -1.73,-8.328 -4.45,-11.639 -4.163,-4.737 -10.637,-6.609 -21.553,-6.609 h -14.221 v 36.205 l 0,0 z m -10.637,-45.827 h 26.719 c 33.474,0 34.769,23.987 34.769,28.3 0,12.504 -7.899,18.387 -11.624,21.405 10.615,4.306 17.661,13.936 17.661,26.151 0,10.201 -4.739,19.537 -12.214,24.567 -9.053,5.31 -16.096,6.031 -28.592,5.888 H 920.916 V 265.838"
         style="fill:#ffffff" /><path
         id="path3040"
         inkscape:connector-curvature="0"
         d="m 1083.193,364.394 c 24.566,0 45.685,-19.972 45.685,-45.255 0,-24.858 -20.541,-45.547 -45.685,-45.547 -23.994,0 -45.551,19.542 -45.551,45.977 0,24.275 20.835,44.825 45.551,44.825 l 0,0 z m 0,-100.427 c 29.876,0 56.315,23.705 56.315,55.023 0,31.319 -26.576,55.027 -56.315,55.027 -30.173,0 -56.178,-24.572 -56.178,-54.448 0,-33.479 27.87,-55.602 56.178,-55.602"
         style="fill:#ffffff" /></g></g></svg>