<?xml version="1.0" encoding="utf-8"?>
<!-- Generator: Adobe Illustrator 16.0.4, SVG Export Plug-In . SVG Version: 6.00 Build 0)  -->
<!DOCTYPE svg PUBLIC "-//W3C//DTD SVG 1.1//EN" "http://www.w3.org/Graphics/SVG/1.1/DTD/svg11.dtd">
<svg version="1.1"
	 id="svg2" xmlns:dc="http://purl.org/dc/elements/1.1/" xmlns:sodipodi="http://sodipodi.sourceforge.net/DTD/sodipodi-0.dtd" xmlns:inkscape="http://www.inkscape.org/namespaces/inkscape" xmlns:svg="http://www.w3.org/2000/svg" xmlns:rdf="http://www.w3.org/1999/02/22-rdf-syntax-ns#" xmlns:cc="http://creativecommons.org/ns#" sodipodi:docname="gazebo_horz_white_only.svg" inkscape:version="0.48.2 r9819"
	 xmlns="http://www.w3.org/2000/svg" xmlns:xlink="http://www.w3.org/1999/xlink" x="0px" y="0px" width="979.85px" height="261px"
	 viewBox="0 109.75 979.85 261" enable-background="new 0 109.75 979.85 261" xml:space="preserve">
<g>
	
		<sodipodi:namedview  id="namedview21" showgrid="false" borderopacity="1" bordercolor="#666666" pagecolor="#ffffff" objecttolerance="10" inkscape:zoom="0.7447059" inkscape:cx="675.12529" inkscape:cy="63.935242" gridtolerance="10" guidetolerance="10" inkscape:window-height="1033" inkscape:pageshadow="2" inkscape:window-maximized="0" inkscape:window-x="2402" inkscape:current-layer="svg2" inkscape:pageopacity="0" inkscape:window-width="1654" inkscape:window-y="214">
		</sodipodi:namedview>
	<g id="g3606" transform="translate(-170.94157,-79.7499)">
		<path id="path3024" inkscape:connector-curvature="0" fill="#FFFFFF" d="M279.685,203.478c-1.195,0.001-2.386,0.297-3.44,0.951
			l-90.942,56.493c-1.919,1.188-3.078,3.307-3.078,5.567v105.02c0,2.262,1.159,4.374,3.078,5.568l90.942,56.447
			c0.044,0.029,0.091,0.065,0.136,0.092c0.049,0.026,0.083,0.06,0.135,0.09c0.103,0.054,0.21,0.083,0.317,0.136
			c0.106,0.054,0.205,0.133,0.317,0.181c0.17,0.068,0.37,0.129,0.543,0.182c0.104,0.036,0.212,0.065,0.317,0.09
			c0.195,0.061,0.391,0.1,0.589,0.137c0.083,0.017,0.142,0.039,0.226,0.045c0.286,0.044,0.575,0.045,0.86,0.045
			c0.593,0,1.191-0.068,1.765-0.227c0.006-0.006,0.045,0,0.045,0c0.223-0.059,0.418-0.186,0.633-0.271
			c0.066-0.025,0.118-0.019,0.181-0.045c0.183-0.079,0.37-0.176,0.543-0.271c0.096-0.053,0.178-0.128,0.271-0.182h0.045l0.136-0.09
			l90.806-56.357c1.928-1.2,3.082-3.343,3.078-5.612l-0.135-52.602c-0.006-2.365-1.319-4.558-3.396-5.704
			c-2.072-1.15-4.597-1.07-6.608,0.182l-38.75,24.127l-29.831-18.514l75.641-47.077c1.92-1.195,3.078-3.305,3.078-5.568
			c-0.005-2.257-1.158-4.335-3.078-5.522l-90.986-56.357C282.069,203.775,280.879,203.478,279.685,203.478L279.685,203.478z
			 M195.035,278.079L260.944,319l-65.909,40.922V278.079z M286.112,326.65l29.832,18.514l-39.835,24.808
			c-1.923,1.193-3.087,3.297-3.078,5.567l0.09,40.694l-71.974-44.724l72.155-44.813l2.943,1.81c1.054,0.654,2.241,0.996,3.44,0.996
			c1.196,0,2.428-0.338,3.486-0.996L286.112,326.65z M364.017,330.634l0.09,37.256l-77.904,48.39l-0.136-37.119L364.017,330.634
			L364.017,330.634z"/>
		<path id="path3028" inkscape:connector-curvature="0" fill="#FFFFFF" d="M201.13,266.48l78.568,48.787l78.568-48.932
			l-78.561-48.648L201.13,266.48"/>
		<path id="path3030" inkscape:connector-curvature="0" fill="#FFFFFF" d="M542.46,323.304
			c-2.44,31.604-30.021,50.714-56.172,50.714c-31.748,0-57.036-25.712-57.036-55.027c0-27.579,22.846-55.023,56.893-55.023
			c28.158,0,46.115,19.397,50.285,30.171h-12.355c-6.034-10.487-20.117-20.545-37.787-20.545c-26.863,0-46.404,21.84-46.404,45.547
			c0,23.701,19.541,45.255,46.838,45.255c22.553,0,39.22-16.668,42.953-31.47h-59.332v-9.621H542.46"/>
		<path id="path3032" inkscape:connector-curvature="0" fill="#FFFFFF" d="M603.063,326.752h41.232l-20.401-48.847L603.063,326.752
			L603.063,326.752z M617.86,265.838h11.925l45.681,106.312h-11.638l-15.362-35.77h-49.424l-15.515,35.77h-11.065L617.86,265.838"/>
		<path id="path3034" inkscape:connector-curvature="0" fill="#FFFFFF" d="M711.561,362.521l52.291-87.062h-50.711v-9.622h62.631
			v9.622l-52.149,87.062h53.732v9.628h-65.794V362.521"/>
		<path id="path3036" inkscape:connector-curvature="0" fill="#FFFFFF" d="M817.314,265.838h58.188v9.622H827.95v38.221h45.972
			v9.623H827.95v39.218h47.552v9.628h-58.188V265.838"/>
		<path id="path3038" inkscape:connector-curvature="0" fill="#FFFFFF" d="M931.553,362.521h14.938c8.911,0,14.37-0.43,20.109-2.728
			c6.608-2.727,11.209-10.052,11.209-18.1c0-8.189-5.458-15.229-12.493-17.961c-5.033-2.012-9.343-2.441-20.694-2.441h-13.069
			V362.521z M931.553,311.665h13.353c8.343,0,13.079-0.431,18.258-3.014c5.023-2.589,8.613-8.614,8.613-14.943
			c0-4.883-1.73-8.328-4.45-11.639c-4.163-4.737-10.637-6.609-21.553-6.609h-14.221V311.665L931.553,311.665z M920.916,265.838
			h26.719c33.474,0,34.769,23.987,34.769,28.3c0,12.504-7.899,18.387-11.624,21.405c10.615,4.306,17.661,13.936,17.661,26.151
			c0,10.201-4.739,19.537-12.214,24.567c-9.053,5.31-16.096,6.031-28.592,5.888h-26.719V265.838"/>
		<path id="path3040" inkscape:connector-curvature="0" fill="#FFFFFF" d="M1083.193,364.394c24.566,0,45.685-19.972,45.685-45.255
			c0-24.858-20.541-45.547-45.685-45.547c-23.994,0-45.551,19.542-45.551,45.977
			C1037.642,343.844,1058.477,364.394,1083.193,364.394L1083.193,364.394z M1083.193,263.967c29.876,0,56.315,23.705,56.315,55.023
			c0,31.319-26.576,55.027-56.315,55.027c-30.173,0-56.178-24.572-56.178-54.448C1027.015,286.09,1054.885,263.967,1083.193,263.967
			"/>
	</g>
</g>
</svg>
