<?xml version="1.0" encoding="utf-8"?>
<!-- Generator: Adobe Illustrator 16.0.4, SVG Export Plug-In . SVG Version: 6.00 Build 0)  -->
<!DOCTYPE svg PUBLIC "-//W3C//DTD SVG 1.1//EN" "http://www.w3.org/Graphics/SVG/1.1/DTD/svg11.dtd">
<svg version="1.1"
	 id="Layer_1" xmlns:dc="http://purl.org/dc/elements/1.1/" xmlns:cc="http://creativecommons.org/ns#" xmlns:rdf="http://www.w3.org/1999/02/22-rdf-syntax-ns#" xmlns:svg="http://www.w3.org/2000/svg" xmlns:sodipodi="http://sodipodi.sourceforge.net/DTD/sodipodi-0.dtd" xmlns:inkscape="http://www.inkscape.org/namespaces/inkscape" sodipodi:docname="google.svg" inkscape:version="0.48.3.1 r9886"
	 xmlns="http://www.w3.org/2000/svg" xmlns:xlink="http://www.w3.org/1999/xlink" x="0px" y="0px" width="56.693px"
	 height="56.693px" viewBox="0 0 56.693 56.693" enable-background="new 0 0 56.693 56.693" xml:space="preserve">
<sodipodi:namedview  inkscape:cy="39.270618" inkscape:cx="28.3465" inkscape:zoom="4.1627714" showgrid="false" guidetolerance="10" gridtolerance="10" objecttolerance="10" borderopacity="1" pagecolor="#000000" bordercolor="#666666" id="namedview5" inkscape:current-layer="Layer_1" inkscape:window-maximized="0" inkscape:window-y="24" inkscape:window-x="0" inkscape:window-height="863" inkscape:window-width="1570" inkscape:pageshadow="2" inkscape:pageopacity="0">
	</sodipodi:namedview>
<path id="rect2986" sodipodi:nodetypes="cccccsssss" inkscape:connector-curvature="0" fill="#FFFFFF" d="M0,0v56.688h56.688V0H0z
	 M28.344,7.156c13.6,0,22.625,9.027,22.625,22.625c0,13.601-9.024,22.625-22.625,22.625S5.719,43.382,5.719,29.781
	C5.719,16.183,14.744,7.156,28.344,7.156z"/>
<path id="path3" fill="#252525" d="M28.347,5.157c-13.601,0-24.625,11.027-24.625,24.625c0,13.6,11.023,24.623,24.625,24.623
	c13.6,0,24.625-11.023,24.625-24.623C52.972,16.184,41.946,5.157,28.347,5.157z M40.991,35.597v6.231h-0.004l0.004,0.564
	c-6.047,3.053-16.084,3.922-21.872,0.018c-3.507-2.365-6.963-7.065-6.773-13.016c0.18-5.648,3.842-10.706,8.878-13.252
	c5.791-2.931,14.532-2.375,19.629,1.844l-3.004,3.061l-1.945,0.554l1.035-1.879c-1.484-1.496-3.191-2.578-5.068-3.181
	c-2.996-0.957-5.758-0.428-8.061,0.699c-4.718,2.309-7.506,7.903-6.425,13.819c1.144,6.233,5.966,11.233,12.292,11.76
	c1.863,0.158,3.904,0.063,5.712-0.412c1.282-0.414,1.274-0.539,1.274-1.318v-5.491l-6.336,0.188l3.262-1.838h8.808L40.991,35.597z"
	/>
</svg>
