<?xml version="1.0" encoding="UTF-8" standalone="no"?>
<svg
   xmlns:dc="http://purl.org/dc/elements/1.1/"
   xmlns:cc="http://creativecommons.org/ns#"
   xmlns:rdf="http://www.w3.org/1999/02/22-rdf-syntax-ns#"
   xmlns:svg="http://www.w3.org/2000/svg"
   xmlns="http://www.w3.org/2000/svg"
   xmlns:sodipodi="http://sodipodi.sourceforge.net/DTD/sodipodi-0.dtd"
   xmlns:inkscape="http://www.inkscape.org/namespaces/inkscape"
   enable-background="new 0 0 56.693 56.693"
   height="56.693px"
   id="Layer_1"
   version="1.1"
   viewBox="0 0 56.693 56.693"
   width="56.693px"
   xml:space="preserve"
   inkscape:version="0.48.3.1 r9886"
   sodipodi:docname="google.svg"><metadata
     id="metadata9"><rdf:RDF><cc:Work
         rdf:about=""><dc:format>image/svg+xml</dc:format><dc:type
           rdf:resource="http://purl.org/dc/dcmitype/StillImage" /></cc:Work></rdf:RDF></metadata><defs
     id="defs7" /><sodipodi:namedview
     pagecolor="#000000"
     bordercolor="#666666"
     borderopacity="1"
     objecttolerance="10"
     gridtolerance="10"
     guidetolerance="10"
     inkscape:pageopacity="0"
     inkscape:pageshadow="2"
     inkscape:window-width="1570"
     inkscape:window-height="863"
     id="namedview5"
     showgrid="false"
     inkscape:zoom="4.1627714"
     inkscape:cx="28.3465"
     inkscape:cy="39.270618"
     inkscape:window-x="0"
     inkscape:window-y="24"
     inkscape:window-maximized="0"
     inkscape:current-layer="Layer_1" /><path
     style="fill:#ffffff;fill-opacity:1;stroke:none"
     d="m 0,0 0,56.6875 56.6875,0 0,-56.6875 z m 28.34375,7.15625 c 13.598999,0 22.625,9.027 22.625,22.625 0,13.599999 -9.025001,22.625 -22.625,22.625 -13.601,0 -22.625,-9.025001 -22.625,-22.625 0,-13.598 9.025,-22.625 22.625,-22.625 z"
     id="rect2986"
     inkscape:connector-curvature="0"
     sodipodi:nodetypes="cccccsssss" /><path
     d="M28.347,5.157c-13.6,0-24.625,11.027-24.625,24.625c0,13.6,11.024,24.623,24.625,24.623c13.6,0,24.625-11.023,24.625-24.623  C52.972,16.184,41.946,5.157,28.347,5.157z M40.991,35.597v6.232h-0.004l0.004,0.564c-6.047,3.053-16.084,3.922-21.872,0.018  c-3.507-2.365-6.963-7.066-6.774-13.016c0.18-5.648,3.842-10.706,8.878-13.252c5.791-2.93,14.533-2.375,19.629,1.844l-3.004,3.061  l-1.945,0.553l1.035-1.879c-1.484-1.496-3.191-2.578-5.068-3.18c-2.996-0.957-5.758-0.428-8.061,0.699  c-4.717,2.309-7.506,7.903-6.424,13.819c1.143,6.234,5.965,11.234,12.292,11.76c1.863,0.158,3.904,0.064,5.711-0.412  c1.283-0.414,1.275-0.539,1.275-1.318v-5.492l-6.336,0.188l3.262-1.838h8.807L40.991,35.597z"
     id="path3" /></svg>