<?xml version="1.0" encoding="utf-8"?>
<!-- Generator: Adobe Illustrator 16.0.4, SVG Export Plug-In . SVG Version: 6.00 Build 0)  -->
<!DOCTYPE svg PUBLIC "-//W3C//DTD SVG 1.1//EN" "http://www.w3.org/Graphics/SVG/1.1/DTD/svg11.dtd">
<svg version="1.1"
	 id="svg2995" xmlns:dc="http://purl.org/dc/elements/1.1/" xmlns:cc="http://creativecommons.org/ns#" xmlns:rdf="http://www.w3.org/1999/02/22-rdf-syntax-ns#" xmlns:svg="http://www.w3.org/2000/svg" xmlns:sodipodi="http://sodipodi.sourceforge.net/DTD/sodipodi-0.dtd" xmlns:inkscape="http://www.inkscape.org/namespaces/inkscape" sodipodi:docname="openid.svg" inkscape:version="0.48.3.1 r9886"
	 xmlns="http://www.w3.org/2000/svg" xmlns:xlink="http://www.w3.org/1999/xlink" x="0px" y="0px" width="56.689px"
	 height="56.689px" viewBox="0 0 56.689 56.689" enable-background="new 0 0 56.689 56.689" xml:space="preserve">
<sodipodi:namedview  inkscape:cy="37.327984" inkscape:cx="15.135353" inkscape:zoom="4" showguides="true" showgrid="false" guidetolerance="10" gridtolerance="10" objecttolerance="10" borderopacity="1" pagecolor="#ffffff" bordercolor="#666666" id="namedview2997" inkscape:current-layer="svg2995" inkscape:window-maximized="0" inkscape:window-y="95" inkscape:window-x="924" inkscape:guide-bbox="true" inkscape:window-height="752" inkscape:window-width="882" inkscape:pageshadow="2" inkscape:pageopacity="0">
	</sodipodi:namedview>
<path id="rect2986" sodipodi:nodetypes="cccccsssss" inkscape:connector-curvature="0" fill="#FFFFFF" d="M0,0.002V56.69h56.688
	V0.002H0z M28.344,7.158c13.6,0,22.625,9.027,22.625,22.625c0,13.601-9.024,22.625-22.625,22.625
	c-13.602,0-22.625-9.024-22.625-22.625C5.719,16.186,14.743,7.158,28.344,7.158z"/>
<path id="path2987" inkscape:connector-curvature="0" fill="#252525" d="M28.345,3.72c-13.6,0-24.625,11.025-24.625,24.625
	c0,13.602,11.025,24.625,24.625,24.625S52.97,41.947,52.97,28.345C52.97,14.745,41.944,3.72,28.345,3.72z M32.001,12.564
	c0,0,0.125,22.193,0.125,29.094c-1.94,0.903-2.342,1.149-5.906,2.469c-14.779,0-24.388-17.029-2.094-21.844l-0.031,4.219
	c-5.125,0.096-7.832,3.807-7.75,6.906c0.082,3.122,4.585,6.802,9.844,7.031V14.97L32.001,12.564z M36.064,22.157l5.594,3.312
	l3.344-2.438l0.75,8.062L35.22,30.314l3.188-2.844l-4-1.188V22.22L36.064,22.157z"/>
</svg>
