<?xml version="1.0" encoding="utf-8"?>
<!-- Generator: Adobe Illustrator 16.0.4, SVG Export Plug-In . SVG Version: 6.00 Build 0)  -->
<!DOCTYPE svg PUBLIC "-//W3C//DTD SVG 1.1//EN" "http://www.w3.org/Graphics/SVG/1.1/DTD/svg11.dtd">
<svg version="1.1" id="Layer_1" xmlns="http://www.w3.org/2000/svg" xmlns:xlink="http://www.w3.org/1999/xlink" x="0px" y="0px"
	 width="64px" height="64px" viewBox="0 0 64 64" enable-background="new 0 0 64 64" xml:space="preserve">
<g>
	<path fill="#666666" d="M22.227,35.328c0,1.97-1.598,3.566-3.567,3.566H5.271c-1.97,0-3.567-1.597-3.567-3.566v-6.656
		c0-1.97,1.597-3.567,3.567-3.567H18.66c1.97,0,3.567,1.598,3.567,3.567V35.328z"/>
	<path fill="#666666" d="M62.297,35.328c0,1.972-1.598,3.566-3.567,3.566H45.34c-1.971,0-3.566-1.595-3.566-3.566v-6.657
		c0-1.969,1.596-3.567,3.566-3.567h13.39c1.97,0,3.567,1.599,3.567,3.567V35.328z"/>
	<line fill="none" stroke="#666666" stroke-width="2.3781" stroke-miterlimit="10" x1="22.118" y1="32" x2="41.991" y2="32"/>
	<path fill="#666666" d="M62.297,55.382c0,1.97-1.598,3.567-3.567,3.567H45.34c-1.971,0-3.566-1.598-3.566-3.567v-6.656
		c0-1.972,1.596-3.567,3.566-3.567h13.39c1.97,0,3.567,1.596,3.567,3.567V55.382z"/>
	
		<line fill="none" stroke="#666666" stroke-width="2.4659" stroke-miterlimit="10" x1="26.896" y1="52.054" x2="42.424" y2="52.054"/>
	<path fill="#666666" d="M62.297,15.275c0,1.971-1.598,3.566-3.567,3.566H45.34c-1.971,0-3.566-1.596-3.566-3.566V8.618
		c0-1.97,1.596-3.567,3.566-3.567h13.39c1.97,0,3.567,1.598,3.567,3.567V15.275z"/>
	
		<line fill="none" stroke="#666666" stroke-width="2.4659" stroke-miterlimit="10" x1="26.896" y1="11.947" x2="42.424" y2="11.947"/>
	
		<line fill="none" stroke="#666666" stroke-width="2.4188" stroke-miterlimit="10" x1="28.091" y1="10.834" x2="28.091" y2="53.185"/>
</g>
</svg>
