<?xml version="1.0" encoding="UTF-8" standalone="no"?>
<!-- Generator: Adobe Illustrator 16.0.4, SVG Export Plug-In . SVG Version: 6.00 Build 0)  -->

<svg
   xmlns:dc="http://purl.org/dc/elements/1.1/"
   xmlns:cc="http://creativecommons.org/ns#"
   xmlns:rdf="http://www.w3.org/1999/02/22-rdf-syntax-ns#"
   xmlns:svg="http://www.w3.org/2000/svg"
   xmlns="http://www.w3.org/2000/svg"
   xmlns:sodipodi="http://sodipodi.sourceforge.net/DTD/sodipodi-0.dtd"
   xmlns:inkscape="http://www.inkscape.org/namespaces/inkscape"
   version="1.1"
   id="Layer_1"
   x="0px"
   y="0px"
   width="100"
   height="16.945108"
   viewBox="0 0 100 16.945107"
   enable-background="new 0 0 64 11.699"
   xml:space="preserve"
   inkscape:version="0.48.4 r9939"
   sodipodi:docname="tps.svg"><metadata
     id="metadata41"><rdf:RDF><cc:Work
         rdf:about=""><dc:format>image/svg+xml</dc:format><dc:type
           rdf:resource="http://purl.org/dc/dcmitype/StillImage" /></cc:Work></rdf:RDF></metadata><defs
     id="defs39" /><sodipodi:namedview
     pagecolor="#ffffff"
     bordercolor="#666666"
     borderopacity="1"
     objecttolerance="10"
     gridtolerance="10"
     guidetolerance="10"
     inkscape:pageopacity="0"
     inkscape:pageshadow="2"
     inkscape:window-width="1473"
     inkscape:window-height="962"
     id="namedview37"
     showgrid="false"
     fit-margin-top="0"
     fit-margin-left="0"
     fit-margin-right="0"
     fit-margin-bottom="0"
     inkscape:zoom="5.4375"
     inkscape:cx="13.031592"
     inkscape:cy="8.966284"
     inkscape:window-x="2913"
     inkscape:window-y="84"
     inkscape:window-maximized="0"
     inkscape:current-layer="Layer_1" /><g
     id="g3"
     transform="matrix(1.6017684,0,0,1.6017684,-1.2573882,-0.85053943)"><g
       id="g5"><path
         d="M 9.546,5.928 V 8.883 H 8.245 V 1.088 h 3.046 c 0.86,0 1.534,0.222 2.021,0.667 0.486,0.444 0.73,1.029 0.73,1.754 0,0.731 -0.244,1.317 -0.73,1.758 -0.487,0.441 -1.161,0.662 -2.021,0.662 H 9.546 z m 0,-1.044 h 1.745 c 0.482,0 0.844,-0.128 1.087,-0.385 C 12.62,4.242 12.742,3.915 12.742,3.52 12.742,3.123 12.62,2.793 12.378,2.529 12.135,2.265 11.774,2.133 11.291,2.133 H 9.546 v 2.751 z"
         id="path7"
         inkscape:connector-curvature="0"
         style="fill:#ffffff" /><path
         d="M 18.048,4.263 17.491,4.242 c -0.254,0 -0.465,0.054 -0.635,0.161 -0.17,0.107 -0.301,0.258 -0.394,0.455 V 8.884 H 15.161 V 3.09 h 1.188 l 0.086,0.841 c 0.146,-0.296 0.334,-0.528 0.564,-0.696 0.23,-0.168 0.496,-0.251 0.796,-0.251 0.078,0 0.15,0.006 0.219,0.019 0.069,0.013 0.131,0.027 0.188,0.045 l -0.154,1.215 z"
         id="path9"
         inkscape:connector-curvature="0"
         style="fill:#ffffff" /><path
         d="m 34.956,6.18 c 0,0.842 -0.198,1.522 -0.595,2.04 -0.397,0.518 -0.948,0.776 -1.654,0.776 -0.329,0 -0.619,-0.059 -0.873,-0.176 C 31.581,8.701 31.363,8.528 31.181,8.299 V 11.11 H 29.88 V 3.09 h 1.098 l 0.129,0.729 c 0.186,-0.271 0.409,-0.479 0.672,-0.622 0.263,-0.143 0.566,-0.214 0.913,-0.214 0.713,0 1.269,0.283 1.667,0.849 0.398,0.566 0.598,1.311 0.598,2.235 V 6.18 z M 33.66,6.064 c 0,-0.592 -0.111,-1.075 -0.335,-1.452 -0.223,-0.376 -0.556,-0.564 -0.998,-0.564 -0.272,0 -0.502,0.059 -0.69,0.174 -0.189,0.115 -0.341,0.277 -0.456,0.484 V 7.32 c 0.115,0.203 0.267,0.359 0.456,0.468 0.188,0.108 0.422,0.163 0.701,0.163 0.442,0 0.773,-0.163 0.993,-0.488 0.22,-0.327 0.329,-0.755 0.329,-1.287 V 6.064 z"
         id="path11"
         inkscape:connector-curvature="0"
         style="fill:#ffffff" /><path
         d="M 43.212,6.875 C 43.212,6.551 43.091,6.286 42.851,6.08 42.61,5.874 42.185,5.689 41.575,5.526 40.703,5.297 40.033,4.995 39.564,4.618 c -0.47,-0.376 -0.705,-0.87 -0.705,-1.48 0,-0.628 0.261,-1.146 0.779,-1.553 0.521,-0.407 1.19,-0.61 2.011,-0.61 0.857,0 1.546,0.231 2.064,0.694 0.519,0.462 0.771,1.016 0.752,1.662 L 44.454,3.363 H 43.207 C 43.207,2.964 43.07,2.639 42.8,2.391 42.529,2.142 42.141,2.019 41.638,2.019 c -0.475,0 -0.84,0.104 -1.095,0.31 -0.255,0.207 -0.383,0.474 -0.383,0.801 0,0.295 0.139,0.542 0.414,0.737 0.277,0.196 0.735,0.381 1.374,0.556 0.839,0.225 1.476,0.536 1.912,0.932 0.435,0.396 0.652,0.901 0.652,1.515 0,0.65 -0.26,1.168 -0.778,1.551 -0.52,0.383 -1.202,0.575 -2.048,0.575 -0.813,0 -1.528,-0.217 -2.142,-0.649 C 38.93,7.912 38.632,7.321 38.649,6.572 L 38.66,6.54 h 1.253 c 0,0.475 0.164,0.829 0.492,1.062 0.329,0.233 0.755,0.351 1.28,0.351 0.481,0 0.856,-0.098 1.124,-0.29 0.269,-0.196 0.403,-0.457 0.403,-0.788 z"
         id="path13"
         inkscape:connector-curvature="0"
         style="fill:#ffffff" /><path
         d="m 47.002,3.84 c 0.193,-0.271 0.428,-0.482 0.704,-0.631 0.276,-0.15 0.583,-0.225 0.919,-0.225 0.614,0 1.093,0.194 1.438,0.581 0.345,0.388 0.516,0.984 0.516,1.791 V 8.884 H 49.278 V 5.344 C 49.278,4.887 49.187,4.557 49.005,4.353 48.823,4.15 48.55,4.048 48.187,4.048 c -0.254,0 -0.481,0.053 -0.683,0.158 -0.202,0.105 -0.369,0.25 -0.501,0.436 V 8.883 H 45.702 V 0.531 h 1.301 V 3.84 z"
         id="path15"
         inkscape:connector-curvature="0"
         style="fill:#ffffff" /><path
         d="m 51.688,5.934 c 0,-0.86 0.234,-1.567 0.706,-2.121 0.479,-0.553 1.127,-0.83 1.943,-0.83 0.832,0 1.483,0.276 1.953,0.83 0.476,0.55 0.714,1.256 0.714,2.121 v 0.112 c 0,0.871 -0.238,1.582 -0.714,2.131 -0.47,0.547 -1.117,0.819 -1.942,0.819 -0.827,0 -1.479,-0.274 -1.954,-0.824 C 51.922,7.622 51.688,6.913 51.688,6.046 V 5.934 z m 1.301,0.109 c 0,0.563 0.109,1.023 0.332,1.379 0.218,0.354 0.56,0.529 1.027,0.529 0.453,0 0.793,-0.176 1.018,-0.529 0.228,-0.356 0.342,-0.816 0.342,-1.379 V 5.931 c 0,-0.553 -0.114,-1.008 -0.342,-1.364 -0.225,-0.36 -0.568,-0.54 -1.028,-0.54 -0.454,0 -0.792,0.18 -1.017,0.54 -0.223,0.359 -0.332,0.814 -0.332,1.364 v 0.112 z"
         id="path17"
         inkscape:connector-curvature="0"
         style="fill:#ffffff" /><path
         d="m 63.215,6.18 c 0,0.842 -0.198,1.522 -0.595,2.04 -0.397,0.518 -0.948,0.776 -1.654,0.776 -0.328,0 -0.619,-0.059 -0.872,-0.176 C 59.839,8.701 59.622,8.528 59.442,8.299 V 11.11 H 58.14 V 3.09 h 1.098 l 0.128,0.729 C 59.552,3.548 59.775,3.34 60.038,3.197 60.3,3.054 60.605,2.983 60.951,2.983 c 0.713,0 1.269,0.283 1.667,0.849 0.398,0.566 0.598,1.311 0.598,2.235 V 6.18 z M 61.919,6.064 c 0,-0.592 -0.111,-1.075 -0.335,-1.452 -0.223,-0.376 -0.556,-0.564 -0.998,-0.564 -0.271,0 -0.501,0.059 -0.691,0.174 -0.189,0.115 -0.34,0.277 -0.453,0.484 V 7.32 c 0.113,0.203 0.264,0.359 0.453,0.468 0.19,0.108 0.423,0.163 0.703,0.163 0.441,0 0.772,-0.163 0.992,-0.488 0.22,-0.327 0.329,-0.755 0.329,-1.287 V 6.064 z"
         id="path19"
         inkscape:connector-curvature="0"
         style="fill:#ffffff" /></g><g
       id="g21"><path
         d="m 3.276,9.604 c 0,0.482 -0.175,0.748 -0.678,0.748 C 1.67,10.352 0.785,9.62 0.785,7.897 0.785,7.575 0.967,6.724 0.967,6.012 0.967,5.67 0.924,5.363 0.799,5.167 1.112,5.342 1.309,5.439 2.962,5.768 2.725,5.461 2.522,5.105 2.522,4.771 c 0,-0.377 0.404,-0.803 0.872,-0.803 0.056,0 0.112,0 0.167,0.014 l 1.334,0.286 c 0.083,0.021 0.159,0.035 0.223,0.035 0.153,0 0.258,-0.076 0.258,-0.349 0,-0.279 -0.391,-0.642 -0.613,-0.921 V 2.795 c 0.32,0.321 1.248,1.109 1.248,1.654 0,0.545 -0.236,0.865 -0.76,0.865 C 5.14,5.314 5.027,5.3 4.896,5.272 L 3.64,5.008 C 3.576,4.994 3.514,4.987 3.457,4.987 c -0.251,0 -0.411,0.132 -0.411,0.32 0,0.195 0.069,0.342 0.202,0.517 0.684,0.132 1.562,0.3 2.763,0.517 V 7.345 L 1.56,6.389 c -0.028,0.279 -0.077,0.6 -0.119,0.92 l 4.57,0.984 V 9.297 L 1.378,8.301 C 1.413,9.074 1.706,9.703 2.802,9.703 3.157,9.704 3.213,9.614 3.276,9.604 z"
         id="path23"
         inkscape:connector-curvature="0"
         style="fill:#ffffff" /><path
         d="M 4.902,3.626 C 4.015,3.626 2.46,3.249 2.46,1.98 c 0,-0.572 0.236,-0.894 0.726,-0.894 0.851,0 1.34,0.914 1.423,1.577 0.111,0.014 0.215,0.021 0.3,0.021 0.46,0 0.601,-0.23 0.601,-0.502 0,-0.328 -0.189,-0.607 -0.447,-0.894 0.754,0 0.948,0.607 0.948,1.305 0,0.67 -0.509,1.033 -1.109,1.033 z M 2.83,1.749 c 0,0.39 0.788,0.711 1.443,0.858 C 4.267,1.965 3.716,1.512 3.22,1.505 3.074,1.505 2.83,1.54 2.83,1.749 z"
         id="path25"
         inkscape:connector-curvature="0"
         style="fill:#ffffff" /></g><g
       id="g27"><path
         stroke-miterlimit="10"
         d="m 23.362,4.791 c -0.053,0.03 0.836,2.626 0.836,2.626 0.275,0.938 -0.107,1.192 -0.107,1.192 -0.28,0.129 -0.87,0.165 -0.87,0.165 C 22.992,8.768 22.559,8.511 22.559,8.511 22.474,8.906 22.154,8.938 22.154,8.938 21.36,9.183 21.108,8.81 21.108,8.81 19.954,7.527 19.519,6.363 19.519,6.363 19.009,5.012 19.331,4.569 19.331,4.569 19.418,4.194 20.316,4.121 20.316,4.121 20.715,4.131 20.859,3.89 20.859,3.89 20.958,3.469 21.206,3.222 21.206,3.222 21.4,2.939 22.296,2.846 22.296,2.846 22.63,2.823 22.708,2.684 22.708,2.684 23.035,1.98 23.687,1.919 23.687,1.919 c 0.534,-0.144 1.201,0.243 1.201,0.243 0.07,0.03 0.312,0.063 0.425,-0.099 0.306,-0.441 0.896,-0.548 0.896,-0.548 0,0 0.986,-0.137 1.52,0.572 0,0 0.531,0.481 0.623,1.792 0,0 0.067,1.117 0.1,1.459 0,0 0.206,0.834 0.197,1.07 0,0 0.077,0.606 -0.481,1.235 -0.039,0.045 -0.081,0.088 -0.126,0.133 0,0 -0.633,0.455 -1.54,0.088 0,0 -0.145,-0.006 -0.173,0.051 0,0 -0.186,0.271 -0.551,0.512 0,0 -0.515,0.387 -1.303,0.135 0,0 -0.009,-0.023 -0.084,0.111 0,0 -0.103,0.08 0.018,0.346 0,0 0.066,0.254 0.45,0.365 0,0 0.554,0.316 0.875,0.361 0,0 0.027,0.014 0.078,0.031 0.153,0.053 0.52,0.133 0.994,-0.047 0,0 0.624,-0.213 0.903,-0.609 0,0 0.297,-0.433 0.43,-0.951 0.133,-0.52 0.032,-0.15 0.046,-0.186 0.013,-0.035 0.077,-0.309 0.029,-0.323"
         id="path29"
         inkscape:connector-curvature="0"
         style="fill:none;stroke:#ffffff;stroke-width:1.11790001;stroke-linecap:round;stroke-miterlimit:10" /><path
         stroke-miterlimit="10"
         d="m 21.5,5.668 c 0,0 0.453,1.07 0.614,1.358 0,0 0.521,1.135 0.45,1.46"
         id="path31"
         inkscape:connector-curvature="0"
         style="fill:none;stroke:#ffffff;stroke-width:1.11790001;stroke-linecap:round;stroke-miterlimit:10" /><path
         stroke-miterlimit="10"
         d="m 25.441,3.753 0.003,0.075 c 0,0 0.227,1.143 0.25,1.218 0,0 0.082,0.359 0.189,0.818 0.25,1.088 0.509,2.124 0.453,1.928"
         id="path33"
         inkscape:connector-curvature="0"
         style="fill:none;stroke:#ffffff;stroke-width:1.11790001;stroke-linecap:round;stroke-linejoin:round;stroke-miterlimit:10" /><path
         stroke-miterlimit="10"
         d="m 24.424,8.965 c 0,0 0.425,-0.053 0.682,0.004 0,0 0.481,0.105 0.68,0.266 0.177,0.145 0.041,0.512 0.053,0.469"
         id="path35"
         inkscape:connector-curvature="0"
         style="fill:none;stroke:#ffffff;stroke-width:1.11790001;stroke-miterlimit:10" /></g></g></svg>