<?xml version="1.0" encoding="utf-8"?>
<!-- Generator: Adobe Illustrator 16.0.4, SVG Export Plug-In . SVG Version: 6.00 Build 0)  -->
<!DOCTYPE svg PUBLIC "-//W3C//DTD SVG 1.1//EN" "http://www.w3.org/Graphics/SVG/1.1/DTD/svg11.dtd">
<svg version="1.1"
	 id="Layer_1" xmlns:dc="http://purl.org/dc/elements/1.1/" xmlns:cc="http://creativecommons.org/ns#" xmlns:rdf="http://www.w3.org/1999/02/22-rdf-syntax-ns#" xmlns:svg="http://www.w3.org/2000/svg" xmlns:sodipodi="http://sodipodi.sourceforge.net/DTD/sodipodi-0.dtd" xmlns:inkscape="http://www.inkscape.org/namespaces/inkscape" sodipodi:docname="yahoo.svg" inkscape:version="0.48.3.1 r9886"
	 xmlns="http://www.w3.org/2000/svg" xmlns:xlink="http://www.w3.org/1999/xlink" x="0px" y="0px" width="56.693px"
	 height="56.693px" viewBox="0 0 56.693 56.693" enable-background="new 0 0 56.693 56.693" xml:space="preserve">
<sodipodi:namedview  inkscape:cy="28.3465" inkscape:cx="28.3465" inkscape:zoom="4.1627714" showgrid="false" guidetolerance="10" gridtolerance="10" objecttolerance="10" borderopacity="1" pagecolor="#ffffff" bordercolor="#666666" id="namedview3205" inkscape:current-layer="Layer_1" inkscape:window-maximized="0" inkscape:window-y="24" inkscape:window-x="0" inkscape:window-height="480" inkscape:window-width="640" inkscape:pageshadow="2" inkscape:pageopacity="0">
	</sodipodi:namedview>
<path id="rect2986" sodipodi:nodetypes="cccccsssss" inkscape:connector-curvature="0" fill="#FFFFFF" d="M0,0v56.688h56.688V0H0z
	 M28.344,7.156c13.6,0,22.625,9.027,22.625,22.625c0,13.601-9.024,22.625-22.625,22.625S5.719,43.382,5.719,29.781
	C5.719,16.183,14.744,7.156,28.344,7.156z"/>
<path id="path3203" fill="#252525" d="M28.347,5.155C14.747,5.155,3.722,16.18,3.722,29.78c0,13.602,11.024,24.625,24.625,24.625
	c13.6,0,24.625-11.023,24.625-24.625C52.972,16.18,41.946,5.155,28.347,5.155z M39.165,25.19c-0.852,0.229-8.627,6.233-9.139,7.711
	c-0.113,0.51,0.012,5.445,0.125,6.186c0.512,0.115,4.211,0.017,4.891,0.129l-0.084,1.525c-0.662-0.051-5.362-0.039-8.047-0.039
	c-1.361,0-5.742,0.15-7.088,0.111l0.255-1.453c0.738-0.053,3.792,0.137,4.462-0.574c0.334-0.354,0.229-5.047,0.117-5.84
	c-0.283-0.85-7.098-9.357-8.878-10.75h-4.591v-2.135h15.479v0.145c0.015,0,0.039,0.002,0.054,0.006l-0.054,0.359v1.625h-4.668
	c2.08,3.029,5.062,6.691,6.336,8.447l6.234-5.627h-3.707l-0.521-2.138h13.576l-0.102,0.152c0.012,0,0.033,0.004,0.047,0.004
	l-0.969,1.398c-0.009,0-0.023,0.004-0.031,0.006l-0.391,0.576h-2.505C39.644,25.089,39.356,25.151,39.165,25.19z M43.261,40.821
	l-1.138-0.084l-1.055-0.092l-0.01-2.283l1.336,0.164l1.198,0.059L43.261,40.821z M43.499,37.028l-2.082-0.168l-0.055-9.646
	c0.477,0.095,4.154,0.441,4.559,0.455L43.499,37.028z"/>
</svg>
